# xmcd CD database file
#
# Track frame offsets:
#	150
#	44410
#	65550
#	94500
#	116452
#	155317
#	191900
#	214695
#	248352
#
# Disc length: 3511 seconds
#
# Revision: 1
# Processed by: cddbd v1.5.2PL0 Copyright (c) Steve Scherf et al.
# Submitted via: CDex 1.51
#
DISCID=720db509
DTITLE=Jon Mayer - Rip Van Winkle  (Jon Mayer Trio)
DYEAR=1998
DGENRE=Jazz
TTITLE0=On green dolphin street
TTITLE1=Shari's bolero
TTITLE2=Tragic magic
TTITLE3=Embraceable you
TTITLE4=Rip van winkle
TTITLE5=Stella by starlight
TTITLE6=If you could see me now
TTITLE7=Red top
TTITLE8=The theme
EXTD=YEAR: 1998
EXTT0=
EXTT1=
EXTT2=
EXTT3=
EXTT4=
EXTT5=
EXTT6=
EXTT7=
EXTT8=
PLAYORDER=
